<svg version="1.1" id="Layer_1" xmlns="http://www.w3.org/2000/svg" xmlns:xlink="http://www.w3.org/1999/xlink" x="0px" y="0px"
	 viewBox="0 0 32 32" style="enable-background:new 0 0 32 32;" xml:space="preserve">
<g>
	<g>
		<path d="M15.1914063,19.7490234c-0.2558594,0-0.5117188-0.0976563-0.7070313-0.2929688l-2.5009766-2.5009766
			c-0.390625-0.390625-0.390625-1.0234375,0-1.4140625s1.0234375-0.390625,1.4140625,0l1.7939453,1.7939453l4.7919922-4.7910156
			c0.390625-0.390625,1.0234375-0.390625,1.4140625,0s0.390625,1.0234375,0,1.4140625l-5.4990234,5.4980469
			C15.703125,19.6513672,15.4472656,19.7490234,15.1914063,19.7490234z"/>
	</g>
	<g>
		<path d="M24.71875,29H7.28125C4.9204102,29,3,27.0791016,3,24.71875V7.28125C3,4.9208984,4.9204102,3,7.28125,3h17.4375
			C27.0795898,3,29,4.9208984,29,7.28125v17.4375C29,27.0791016,27.0795898,29,24.71875,29z M7.28125,5
			C6.0234375,5,5,6.0234375,5,7.28125v17.4375C5,25.9765625,6.0234375,27,7.28125,27h17.4375
			C25.9765625,27,27,25.9765625,27,24.71875V7.28125C27,6.0234375,25.9765625,5,24.71875,5H7.28125z"/>
	</g>
</g>
</svg>
